<mxfile host="app.diagrams.net" agent="Mozilla/5.0 (Windows NT 10.0; Win64; x64) AppleWebKit/537.36 (KHTML, like Gecko) Chrome/137.0.0.0 Safari/537.36" version="27.1.6">
  <diagram name="Page-1" id="DzPnnTQ7xdPRlWUNCrma">
    <mxGraphModel dx="1226" dy="671" grid="1" gridSize="10" guides="1" tooltips="1" connect="1" arrows="1" fold="1" page="1" pageScale="1" pageWidth="850" pageHeight="1100" math="0" shadow="0">
      <root>
        <mxCell id="0" />
        <mxCell id="1" parent="0" />
        <mxCell id="d7ikIAEoFbQrtcVT-Jfu-6" value="" style="group" vertex="1" connectable="0" parent="1">
          <mxGeometry x="130" y="80" width="80" height="150" as="geometry" />
        </mxCell>
        <mxCell id="d7ikIAEoFbQrtcVT-Jfu-1" value="" style="ellipse;whiteSpace=wrap;html=1;aspect=fixed;" vertex="1" parent="d7ikIAEoFbQrtcVT-Jfu-6">
          <mxGeometry x="15.384615384615381" width="44.444444444444436" height="44.444444444444436" as="geometry" />
        </mxCell>
        <mxCell id="d7ikIAEoFbQrtcVT-Jfu-2" value="" style="endArrow=none;html=1;rounded=0;entryX=0.5;entryY=1;entryDx=0;entryDy=0;" edge="1" parent="d7ikIAEoFbQrtcVT-Jfu-6" target="d7ikIAEoFbQrtcVT-Jfu-1">
          <mxGeometry width="50" height="50" relative="1" as="geometry">
            <mxPoint x="40" y="111.11111111111109" as="sourcePoint" />
            <mxPoint x="101.53846153846152" y="55.55555555555554" as="targetPoint" />
          </mxGeometry>
        </mxCell>
        <mxCell id="d7ikIAEoFbQrtcVT-Jfu-3" value="" style="endArrow=none;html=1;rounded=0;" edge="1" parent="d7ikIAEoFbQrtcVT-Jfu-6">
          <mxGeometry width="50" height="50" relative="1" as="geometry">
            <mxPoint x="9.230769230769232" y="150" as="sourcePoint" />
            <mxPoint x="40" y="111.11111111111109" as="targetPoint" />
          </mxGeometry>
        </mxCell>
        <mxCell id="d7ikIAEoFbQrtcVT-Jfu-4" value="" style="endArrow=none;html=1;rounded=0;" edge="1" parent="d7ikIAEoFbQrtcVT-Jfu-6">
          <mxGeometry width="50" height="50" relative="1" as="geometry">
            <mxPoint x="70.76923076923077" y="150" as="sourcePoint" />
            <mxPoint x="40" y="111.11111111111109" as="targetPoint" />
          </mxGeometry>
        </mxCell>
        <mxCell id="d7ikIAEoFbQrtcVT-Jfu-5" value="" style="endArrow=none;html=1;rounded=0;" edge="1" parent="d7ikIAEoFbQrtcVT-Jfu-6">
          <mxGeometry width="50" height="50" relative="1" as="geometry">
            <mxPoint x="80" y="61.1111111111111" as="sourcePoint" />
            <mxPoint y="61.1111111111111" as="targetPoint" />
          </mxGeometry>
        </mxCell>
        <mxCell id="d7ikIAEoFbQrtcVT-Jfu-13" value="" style="group" vertex="1" connectable="0" parent="1">
          <mxGeometry x="620" y="80" width="80" height="150" as="geometry" />
        </mxCell>
        <mxCell id="d7ikIAEoFbQrtcVT-Jfu-14" value="" style="ellipse;whiteSpace=wrap;html=1;aspect=fixed;" vertex="1" parent="d7ikIAEoFbQrtcVT-Jfu-13">
          <mxGeometry x="15.384615384615381" width="44.444444444444436" height="44.444444444444436" as="geometry" />
        </mxCell>
        <mxCell id="d7ikIAEoFbQrtcVT-Jfu-15" value="" style="endArrow=none;html=1;rounded=0;entryX=0.5;entryY=1;entryDx=0;entryDy=0;" edge="1" parent="d7ikIAEoFbQrtcVT-Jfu-13" target="d7ikIAEoFbQrtcVT-Jfu-14">
          <mxGeometry width="50" height="50" relative="1" as="geometry">
            <mxPoint x="40" y="111.11111111111109" as="sourcePoint" />
            <mxPoint x="101.53846153846152" y="55.55555555555554" as="targetPoint" />
          </mxGeometry>
        </mxCell>
        <mxCell id="d7ikIAEoFbQrtcVT-Jfu-16" value="" style="endArrow=none;html=1;rounded=0;" edge="1" parent="d7ikIAEoFbQrtcVT-Jfu-13">
          <mxGeometry width="50" height="50" relative="1" as="geometry">
            <mxPoint x="9.230769230769232" y="150" as="sourcePoint" />
            <mxPoint x="40" y="111.11111111111109" as="targetPoint" />
          </mxGeometry>
        </mxCell>
        <mxCell id="d7ikIAEoFbQrtcVT-Jfu-17" value="" style="endArrow=none;html=1;rounded=0;" edge="1" parent="d7ikIAEoFbQrtcVT-Jfu-13">
          <mxGeometry width="50" height="50" relative="1" as="geometry">
            <mxPoint x="70.76923076923077" y="150" as="sourcePoint" />
            <mxPoint x="40" y="111.11111111111109" as="targetPoint" />
          </mxGeometry>
        </mxCell>
        <mxCell id="d7ikIAEoFbQrtcVT-Jfu-18" value="" style="endArrow=none;html=1;rounded=0;" edge="1" parent="d7ikIAEoFbQrtcVT-Jfu-13">
          <mxGeometry width="50" height="50" relative="1" as="geometry">
            <mxPoint x="80" y="61.1111111111111" as="sourcePoint" />
            <mxPoint y="61.1111111111111" as="targetPoint" />
          </mxGeometry>
        </mxCell>
        <mxCell id="d7ikIAEoFbQrtcVT-Jfu-19" value="" style="group" vertex="1" connectable="0" parent="1">
          <mxGeometry x="620" y="320" width="80" height="150" as="geometry" />
        </mxCell>
        <mxCell id="d7ikIAEoFbQrtcVT-Jfu-20" value="" style="ellipse;whiteSpace=wrap;html=1;aspect=fixed;" vertex="1" parent="d7ikIAEoFbQrtcVT-Jfu-19">
          <mxGeometry x="15.384615384615381" width="44.444444444444436" height="44.444444444444436" as="geometry" />
        </mxCell>
        <mxCell id="d7ikIAEoFbQrtcVT-Jfu-21" value="" style="endArrow=none;html=1;rounded=0;entryX=0.5;entryY=1;entryDx=0;entryDy=0;" edge="1" parent="d7ikIAEoFbQrtcVT-Jfu-19" target="d7ikIAEoFbQrtcVT-Jfu-20">
          <mxGeometry width="50" height="50" relative="1" as="geometry">
            <mxPoint x="40" y="111.11111111111109" as="sourcePoint" />
            <mxPoint x="101.53846153846152" y="55.55555555555554" as="targetPoint" />
          </mxGeometry>
        </mxCell>
        <mxCell id="d7ikIAEoFbQrtcVT-Jfu-22" value="" style="endArrow=none;html=1;rounded=0;" edge="1" parent="d7ikIAEoFbQrtcVT-Jfu-19">
          <mxGeometry width="50" height="50" relative="1" as="geometry">
            <mxPoint x="9.230769230769232" y="150" as="sourcePoint" />
            <mxPoint x="40" y="111.11111111111109" as="targetPoint" />
          </mxGeometry>
        </mxCell>
        <mxCell id="d7ikIAEoFbQrtcVT-Jfu-23" value="" style="endArrow=none;html=1;rounded=0;" edge="1" parent="d7ikIAEoFbQrtcVT-Jfu-19">
          <mxGeometry width="50" height="50" relative="1" as="geometry">
            <mxPoint x="70.76923076923077" y="150" as="sourcePoint" />
            <mxPoint x="40" y="111.11111111111109" as="targetPoint" />
          </mxGeometry>
        </mxCell>
        <mxCell id="d7ikIAEoFbQrtcVT-Jfu-24" value="" style="endArrow=none;html=1;rounded=0;" edge="1" parent="d7ikIAEoFbQrtcVT-Jfu-19">
          <mxGeometry width="50" height="50" relative="1" as="geometry">
            <mxPoint x="80" y="61.1111111111111" as="sourcePoint" />
            <mxPoint y="61.1111111111111" as="targetPoint" />
          </mxGeometry>
        </mxCell>
        <mxCell id="d7ikIAEoFbQrtcVT-Jfu-26" value="" style="rounded=0;whiteSpace=wrap;html=1;fillColor=none;" vertex="1" parent="1">
          <mxGeometry x="290" y="20" width="260" height="590" as="geometry" />
        </mxCell>
        <mxCell id="d7ikIAEoFbQrtcVT-Jfu-27" value="Salon ljepote" style="rounded=0;whiteSpace=wrap;html=1;" vertex="1" parent="1">
          <mxGeometry x="330" y="40" width="190" height="40" as="geometry" />
        </mxCell>
        <mxCell id="d7ikIAEoFbQrtcVT-Jfu-28" value="Klijent" style="text;html=1;align=center;verticalAlign=middle;resizable=0;points=[];autosize=1;strokeColor=none;fillColor=none;" vertex="1" parent="1">
          <mxGeometry x="140" y="240" width="60" height="30" as="geometry" />
        </mxCell>
        <mxCell id="d7ikIAEoFbQrtcVT-Jfu-29" value="&lt;span style=&quot;text-wrap-mode: nowrap;&quot;&gt;Sustav za obavijesti&lt;/span&gt;" style="text;strokeColor=none;align=center;fillColor=none;html=1;verticalAlign=middle;whiteSpace=wrap;rounded=0;" vertex="1" parent="1">
          <mxGeometry x="630" y="240" width="60" height="30" as="geometry" />
        </mxCell>
        <mxCell id="d7ikIAEoFbQrtcVT-Jfu-30" value="Zaposlenik" style="text;html=1;align=center;verticalAlign=middle;resizable=0;points=[];autosize=1;strokeColor=none;fillColor=none;" vertex="1" parent="1">
          <mxGeometry x="620" y="478" width="80" height="30" as="geometry" />
        </mxCell>
        <mxCell id="d7ikIAEoFbQrtcVT-Jfu-31" value="Rezerviranje termina" style="ellipse;whiteSpace=wrap;html=1;" vertex="1" parent="1">
          <mxGeometry x="375" y="100" width="100" height="50" as="geometry" />
        </mxCell>
        <mxCell id="d7ikIAEoFbQrtcVT-Jfu-32" value="Upravljanje klijentima&lt;span style=&quot;color: rgba(0, 0, 0, 0); font-family: monospace; font-size: 0px; text-align: start; text-wrap-mode: nowrap;&quot;&gt;%3CmxGraphModel%3E%3Croot%3E%3CmxCell%20id%3D%220%22%2F%3E%3CmxCell%20id%3D%221%22%20parent%3D%220%22%2F%3E%3CmxCell%20id%3D%222%22%20value%3D%22Rezerviranje%20termina%22%20style%3D%22ellipse%3BwhiteSpace%3Dwrap%3Bhtml%3D1%3B%22%20vertex%3D%221%22%20parent%3D%221%22%3E%3CmxGeometry%20x%3D%22370%22%20y%3D%22100%22%20width%3D%22100%22%20height%3D%2250%22%20as%3D%22geometry%22%2F%3E%3C%2FmxCell%3E%3C%2Froot%3E%3C%2FmxGraphModel%3E&lt;/span&gt;" style="ellipse;whiteSpace=wrap;html=1;" vertex="1" parent="1">
          <mxGeometry x="375" y="170" width="100" height="50" as="geometry" />
        </mxCell>
        <mxCell id="d7ikIAEoFbQrtcVT-Jfu-33" value="Upravljanje uslugama&amp;nbsp;" style="ellipse;whiteSpace=wrap;html=1;" vertex="1" parent="1">
          <mxGeometry x="375" y="240" width="100" height="50" as="geometry" />
        </mxCell>
        <mxCell id="d7ikIAEoFbQrtcVT-Jfu-34" value="Upravljanje zaposlenicima" style="ellipse;whiteSpace=wrap;html=1;" vertex="1" parent="1">
          <mxGeometry x="375" y="310" width="100" height="50" as="geometry" />
        </mxCell>
        <mxCell id="d7ikIAEoFbQrtcVT-Jfu-35" value="Izdavanje računa" style="ellipse;whiteSpace=wrap;html=1;" vertex="1" parent="1">
          <mxGeometry x="375" y="450" width="100" height="50" as="geometry" />
        </mxCell>
        <mxCell id="d7ikIAEoFbQrtcVT-Jfu-36" value="Pregled izvještaja" style="ellipse;whiteSpace=wrap;html=1;" vertex="1" parent="1">
          <mxGeometry x="375" y="525" width="100" height="50" as="geometry" />
        </mxCell>
        <mxCell id="d7ikIAEoFbQrtcVT-Jfu-38" value="Slanje podsjetnika" style="ellipse;whiteSpace=wrap;html=1;" vertex="1" parent="1">
          <mxGeometry x="375" y="380" width="100" height="50" as="geometry" />
        </mxCell>
        <mxCell id="d7ikIAEoFbQrtcVT-Jfu-39" value="" style="endArrow=none;html=1;rounded=0;entryX=0;entryY=0.5;entryDx=0;entryDy=0;" edge="1" parent="1" target="d7ikIAEoFbQrtcVT-Jfu-31">
          <mxGeometry width="50" height="50" relative="1" as="geometry">
            <mxPoint x="230" y="130" as="sourcePoint" />
            <mxPoint x="280" y="80" as="targetPoint" />
          </mxGeometry>
        </mxCell>
        <mxCell id="d7ikIAEoFbQrtcVT-Jfu-40" value="" style="endArrow=none;html=1;rounded=0;" edge="1" parent="1">
          <mxGeometry width="50" height="50" relative="1" as="geometry">
            <mxPoint x="460" y="390" as="sourcePoint" />
            <mxPoint x="640" y="190" as="targetPoint" />
          </mxGeometry>
        </mxCell>
        <mxCell id="d7ikIAEoFbQrtcVT-Jfu-41" value="" style="endArrow=none;html=1;rounded=0;entryX=0.95;entryY=0.745;entryDx=0;entryDy=0;entryPerimeter=0;" edge="1" parent="1" target="d7ikIAEoFbQrtcVT-Jfu-31">
          <mxGeometry width="50" height="50" relative="1" as="geometry">
            <mxPoint x="620" y="340" as="sourcePoint" />
            <mxPoint x="520" y="150" as="targetPoint" />
          </mxGeometry>
        </mxCell>
        <mxCell id="d7ikIAEoFbQrtcVT-Jfu-42" value="" style="endArrow=none;html=1;rounded=0;entryX=0.95;entryY=0.6;entryDx=0;entryDy=0;entryPerimeter=0;" edge="1" parent="1" target="d7ikIAEoFbQrtcVT-Jfu-32">
          <mxGeometry width="50" height="50" relative="1" as="geometry">
            <mxPoint x="610" y="360" as="sourcePoint" />
            <mxPoint x="480" y="200" as="targetPoint" />
          </mxGeometry>
        </mxCell>
        <mxCell id="d7ikIAEoFbQrtcVT-Jfu-43" value="" style="endArrow=none;html=1;rounded=0;entryX=0.95;entryY=0.8;entryDx=0;entryDy=0;entryPerimeter=0;" edge="1" parent="1" target="d7ikIAEoFbQrtcVT-Jfu-33">
          <mxGeometry width="50" height="50" relative="1" as="geometry">
            <mxPoint x="600" y="380" as="sourcePoint" />
            <mxPoint x="450" y="340" as="targetPoint" />
          </mxGeometry>
        </mxCell>
        <mxCell id="d7ikIAEoFbQrtcVT-Jfu-44" value="" style="endArrow=none;html=1;rounded=0;entryX=0.997;entryY=0.686;entryDx=0;entryDy=0;entryPerimeter=0;" edge="1" parent="1" target="d7ikIAEoFbQrtcVT-Jfu-34">
          <mxGeometry width="50" height="50" relative="1" as="geometry">
            <mxPoint x="600" y="410" as="sourcePoint" />
            <mxPoint x="450" y="340" as="targetPoint" />
          </mxGeometry>
        </mxCell>
        <mxCell id="d7ikIAEoFbQrtcVT-Jfu-45" value="" style="endArrow=none;html=1;rounded=0;exitX=1;exitY=0.5;exitDx=0;exitDy=0;" edge="1" parent="1" source="d7ikIAEoFbQrtcVT-Jfu-35">
          <mxGeometry width="50" height="50" relative="1" as="geometry">
            <mxPoint x="400" y="390" as="sourcePoint" />
            <mxPoint x="600" y="440" as="targetPoint" />
          </mxGeometry>
        </mxCell>
        <mxCell id="d7ikIAEoFbQrtcVT-Jfu-46" value="" style="endArrow=none;html=1;rounded=0;exitX=1;exitY=0.5;exitDx=0;exitDy=0;" edge="1" parent="1" source="d7ikIAEoFbQrtcVT-Jfu-36">
          <mxGeometry width="50" height="50" relative="1" as="geometry">
            <mxPoint x="400" y="390" as="sourcePoint" />
            <mxPoint x="600" y="470" as="targetPoint" />
          </mxGeometry>
        </mxCell>
        <mxCell id="d7ikIAEoFbQrtcVT-Jfu-47" value="" style="endArrow=none;dashed=1;html=1;rounded=0;exitX=0;exitY=0.5;exitDx=0;exitDy=0;entryX=0.056;entryY=0.764;entryDx=0;entryDy=0;entryPerimeter=0;" edge="1" parent="1" source="d7ikIAEoFbQrtcVT-Jfu-48" target="d7ikIAEoFbQrtcVT-Jfu-31">
          <mxGeometry width="50" height="50" relative="1" as="geometry">
            <mxPoint x="400" y="390" as="sourcePoint" />
            <mxPoint x="450" y="340" as="targetPoint" />
            <Array as="points" />
          </mxGeometry>
        </mxCell>
        <mxCell id="d7ikIAEoFbQrtcVT-Jfu-58" value="" style="endArrow=none;dashed=1;html=1;rounded=0;exitX=0;exitY=0.5;exitDx=0;exitDy=0;" edge="1" parent="1" source="d7ikIAEoFbQrtcVT-Jfu-38">
          <mxGeometry width="50" height="50" relative="1" as="geometry">
            <mxPoint x="375" y="405" as="sourcePoint" />
            <mxPoint x="375" y="150" as="targetPoint" />
            <Array as="points">
              <mxPoint x="320" y="260" />
            </Array>
          </mxGeometry>
        </mxCell>
        <mxCell id="d7ikIAEoFbQrtcVT-Jfu-59" value="&amp;lt;&amp;lt;extend&amp;gt;&amp;gt;" style="edgeLabel;html=1;align=center;verticalAlign=middle;resizable=0;points=[];" vertex="1" connectable="0" parent="d7ikIAEoFbQrtcVT-Jfu-58">
          <mxGeometry x="0.3917" y="-3" relative="1" as="geometry">
            <mxPoint x="1" as="offset" />
          </mxGeometry>
        </mxCell>
        <mxCell id="d7ikIAEoFbQrtcVT-Jfu-48" value="" style="triangle;whiteSpace=wrap;html=1;fillColor=#000000;rotation=-65;" vertex="1" parent="1">
          <mxGeometry x="370" y="130" width="20" height="20" as="geometry" />
        </mxCell>
      </root>
    </mxGraphModel>
  </diagram>
</mxfile>
